<mxfile host="app.diagrams.net" modified="2023-04-18T04:20:51.186Z" agent="Mozilla/5.0 (Windows NT 10.0; Win64; x64) AppleWebKit/537.36 (KHTML, like Gecko) Chrome/111.0.0.0 Safari/537.36" etag="CP7PvMkbzA8M8Tgjzozi" version="21.1.8" type="github">
  <diagram name="Page-1" id="3mi5PK6KswD7AHe5l2Ag">
    <mxGraphModel dx="794" dy="438" grid="1" gridSize="10" guides="1" tooltips="1" connect="1" arrows="1" fold="1" page="1" pageScale="1" pageWidth="827" pageHeight="1169" math="0" shadow="0">
      <root>
        <mxCell id="0" />
        <mxCell id="1" parent="0" />
        <mxCell id="DBWLupaXw7ttVhpufzyU-1" value="" style="rounded=0;whiteSpace=wrap;html=1;" parent="1" vertex="1">
          <mxGeometry x="325" y="224.78" width="120" height="60" as="geometry" />
        </mxCell>
        <mxCell id="DBWLupaXw7ttVhpufzyU-2" value="" style="rounded=0;whiteSpace=wrap;html=1;" parent="1" vertex="1">
          <mxGeometry x="553" y="224.78" width="36" height="60" as="geometry" />
        </mxCell>
        <mxCell id="OhxZ4oHfoJ0yw_Fxf15G-1" value="&lt;h1&gt;Stacking Ensemble&lt;/h1&gt;" style="text;strokeColor=none;align=center;fillColor=none;html=1;verticalAlign=middle;whiteSpace=wrap;rounded=0;" parent="1" vertex="1">
          <mxGeometry x="322.5" y="20" width="290" height="20" as="geometry" />
        </mxCell>
        <mxCell id="OhxZ4oHfoJ0yw_Fxf15G-15" value="" style="shape=stencil(lZbdUttADIWfxrdnpNX+XlN4D2YIjYc0YUKg5e3R1mOIlkSd3vnv88pHR8c7yc3L9v55MwV6OR0PT5vf88NpO8mPKYR5v90c55MeTXI7yc3j4bj5eTy87h+W8+f7/mQ/+nV462/4s3CNUEKnAr0vV2JCan+v3C3Abt6fAxmlGCAJWnWAhsoGyIKaXSCJAUoEeyUltGyAqis4QG2IFmiMFh1AVbIltYLE14FCyFYlJgLRdSITJNolGtiRKRGq7ZzqQE4jooBtI2oFO4BUkAVK84EMsrrmBhIHKGMjUkV1VIphXCGqW5zO6W1pFggITklaQK4G0CKzs0KuaMkCGSE53lARrZlU6OB8dG+TXUFbGfyBoGFG6V8zykPjCLFcB87c/OkNWoPh8hI6MBbQofJa3UdysGtbX3FZJh36YUg1GJySeqzYkr6i53KrBeXbjFYnBjQa6wBofHozmhCHoVZZHTN1QP4HkDima09Dx0whrm7+BBKyE0yc1rQ+i43ofHRBtW4tDHHaEMYwzrym7cXn1ar2AxKvKXLteWuLSODg1ZNsYgRfUc0TWz831xQcR4GYkZweBxmBBHEmRz0x/Bm0AY6garpBofHfpgdfO47HebdbNizn98cdil5adjdy+wE=);lineShape=1;" parent="1" vertex="1">
          <mxGeometry x="490.1965289838006" y="253.52214758018033" width="2.51462274023811" height="2.522336761604606" as="geometry" />
        </mxCell>
        <mxCell id="OhxZ4oHfoJ0yw_Fxf15G-17" value="&lt;font style=&quot;font-size: 18px;&quot;&gt;&lt;b style=&quot;&quot;&gt;&lt;sub&gt;X1&amp;nbsp; &amp;nbsp;X2&amp;nbsp; X3......Xn&lt;/sub&gt;&lt;/b&gt;&lt;/font&gt;" style="rounded=0;whiteSpace=wrap;html=1;align=left;shadow=0;strokeColor=none;fillColor=none;" parent="1" vertex="1">
          <mxGeometry x="325" y="195.58" width="130" height="29.2" as="geometry" />
        </mxCell>
        <mxCell id="OhxZ4oHfoJ0yw_Fxf15G-19" value="&lt;div style=&quot;&quot;&gt;&lt;span style=&quot;background-color: initial;&quot;&gt;&lt;b&gt;&lt;font style=&quot;font-size: 18px;&quot;&gt;y&lt;/font&gt;&lt;/b&gt;&lt;/span&gt;&lt;/div&gt;" style="rounded=0;whiteSpace=wrap;html=1;align=center;shadow=0;strokeColor=none;fillColor=none;" parent="1" vertex="1">
          <mxGeometry x="556" y="195.58" width="30" height="29.2" as="geometry" />
        </mxCell>
        <mxCell id="OhxZ4oHfoJ0yw_Fxf15G-21" value="" style="rounded=0;whiteSpace=wrap;html=1;" parent="1" vertex="1">
          <mxGeometry x="385" y="60" width="165" height="60" as="geometry" />
        </mxCell>
        <mxCell id="OhxZ4oHfoJ0yw_Fxf15G-22" value="" style="endArrow=classic;html=1;rounded=0;exitX=0.5;exitY=1;exitDx=0;exitDy=0;entryX=0.392;entryY=-0.054;entryDx=0;entryDy=0;entryPerimeter=0;" parent="1" source="OhxZ4oHfoJ0yw_Fxf15G-21" target="OhxZ4oHfoJ0yw_Fxf15G-17" edge="1">
          <mxGeometry width="50" height="50" relative="1" as="geometry">
            <mxPoint x="380" y="160" as="sourcePoint" />
            <mxPoint x="430" y="110" as="targetPoint" />
          </mxGeometry>
        </mxCell>
        <mxCell id="OhxZ4oHfoJ0yw_Fxf15G-23" value="" style="endArrow=classic;html=1;rounded=0;exitX=0.5;exitY=1;exitDx=0;exitDy=0;" parent="1" source="OhxZ4oHfoJ0yw_Fxf15G-21" edge="1">
          <mxGeometry width="50" height="50" relative="1" as="geometry">
            <mxPoint x="478" y="160" as="sourcePoint" />
            <mxPoint x="560" y="190" as="targetPoint" />
          </mxGeometry>
        </mxCell>
        <mxCell id="OhxZ4oHfoJ0yw_Fxf15G-25" value="&lt;b&gt;&lt;font style=&quot;font-size: 12px;&quot;&gt;90% Training&lt;/font&gt;&lt;/b&gt;" style="text;strokeColor=none;align=center;fillColor=none;html=1;verticalAlign=middle;whiteSpace=wrap;rounded=0;" parent="1" vertex="1">
          <mxGeometry x="355" y="130" width="60" height="30" as="geometry" />
        </mxCell>
        <mxCell id="OhxZ4oHfoJ0yw_Fxf15G-26" value="&lt;b&gt;&lt;font style=&quot;font-size: 12px;&quot;&gt;10%&lt;br&gt;Test&lt;/font&gt;&lt;/b&gt;" style="text;strokeColor=none;align=center;fillColor=none;html=1;verticalAlign=middle;whiteSpace=wrap;rounded=0;" parent="1" vertex="1">
          <mxGeometry x="526" y="130" width="60" height="30" as="geometry" />
        </mxCell>
        <mxCell id="OhxZ4oHfoJ0yw_Fxf15G-29" value="" style="rounded=0;whiteSpace=wrap;html=1;" parent="1" vertex="1">
          <mxGeometry x="260" y="350" width="115" height="60" as="geometry" />
        </mxCell>
        <mxCell id="OhxZ4oHfoJ0yw_Fxf15G-30" value="" style="rounded=0;whiteSpace=wrap;html=1;" parent="1" vertex="1">
          <mxGeometry x="455" y="350" width="33.55" height="60" as="geometry" />
        </mxCell>
        <mxCell id="OhxZ4oHfoJ0yw_Fxf15G-31" value="" style="endArrow=classic;html=1;rounded=0;exitX=0.5;exitY=1;exitDx=0;exitDy=0;" parent="1" source="DBWLupaXw7ttVhpufzyU-1" edge="1">
          <mxGeometry width="50" height="50" relative="1" as="geometry">
            <mxPoint x="390" y="290" as="sourcePoint" />
            <mxPoint x="300" y="350" as="targetPoint" />
          </mxGeometry>
        </mxCell>
        <mxCell id="OhxZ4oHfoJ0yw_Fxf15G-32" value="" style="endArrow=classic;html=1;rounded=0;exitX=0.5;exitY=1;exitDx=0;exitDy=0;entryX=0.5;entryY=0;entryDx=0;entryDy=0;" parent="1" source="DBWLupaXw7ttVhpufzyU-1" target="OhxZ4oHfoJ0yw_Fxf15G-30" edge="1">
          <mxGeometry width="50" height="50" relative="1" as="geometry">
            <mxPoint x="375" y="284.78" as="sourcePoint" />
            <mxPoint x="467" y="354.78" as="targetPoint" />
          </mxGeometry>
        </mxCell>
      </root>
    </mxGraphModel>
  </diagram>
</mxfile>
